<?xml version="1.0" encoding="iso-8859-1"?>
<!-- Uploaded to: SVG Repo, www.svgrepo.com, Generator: SVG Repo Mixer Tools -->
<svg fill="#000000" height="800px" width="800px" version="1.1" id="Layer_1" xmlns="http://www.w3.org/2000/svg" xmlns:xlink="http://www.w3.org/1999/xlink" 
	 viewBox="0 0 512 512" xml:space="preserve">
<g>
	<g>
		<path d="M340.961,172.713c-3.172-3.656-7.772-5.757-12.613-5.757H205.682l-5.603-30.812c-1.444-7.938-8.357-13.709-16.426-13.709
			h-33.391c-9.22,0-16.696,7.475-16.696,16.696s7.475,16.696,16.696,16.696h19.457l5.553,30.54c0.032,0.196,0.068,0.391,0.106,0.583
			l14.11,77.602c1.444,7.938,8.357,13.709,16.426,13.709h111.304c8.309,0,15.353-6.109,16.529-14.335l11.13-77.913
			C345.56,181.222,344.132,176.37,340.961,172.713z M302.737,244.87h-82.891l-8.094-44.522h97.346L302.737,244.87z"/>
	</g>
</g>
<g>
	<g>
		<circle cx="217.043" cy="306.087" r="16.696"/>
	</g>
</g>
<g>
	<g>
		<circle cx="306.087" cy="306.087" r="16.696"/>
	</g>
</g>
<g>
	<g>
		<path d="M495.304,356.174h-16.696V72.348c0-9.22-7.475-16.696-16.696-16.696H50.087c-9.22,0-16.696,7.475-16.696,16.696v283.826
			H16.696C7.475,356.174,0,363.649,0,372.87v33.391c0,27.618,22.469,50.087,50.087,50.087h411.826
			c27.618,0,50.087-22.469,50.087-50.087V372.87C512,363.649,504.525,356.174,495.304,356.174z M66.783,89.043h378.435v267.13
			H66.783V89.043z M478.609,406.261c0,9.206-7.49,16.696-16.696,16.696H50.087c-9.206,0-16.696-7.49-16.696-16.696v-16.696h16.696
			h411.826h16.696V406.261z"/>
	</g>
</g>
</svg>